<svg width="91" height="20" viewBox="0 0 91 20" fill="none" xmlns="http://www.w3.org/2000/svg">
<path d="M0 18.8101H4.44717L8.4002 5.82507L12.6003 18.8101H17.5416L10.8709 0H6.30015L0 18.8101Z" fill="black"/>
<path d="M20.0117 18.8101H23.7177L30.2649 7.88812V18.8101H34.465V0H30.512L24.0883 11.0434V0H20.0117V18.8101Z" fill="black"/>
<path d="M39.5317 18.8101H43.3612V4.24745H51.6379V0H38.9141V18.8101H39.5317Z" fill="black"/>
<path d="M51.0195 18.8101H55.2196L56.5785 15.1695H62.7551L64.114 18.8101H68.3141L62.0139 0H57.4432L51.0195 18.8101Z" fill="black"/>
<path d="M59.0488 5.7037H60.0371L61.643 11.7715H57.5664L59.0488 5.7037Z" fill="white"/>
<path d="M74.8613 14.6115V0.0488281H90.3029V14.6115L82.5203 19.4657L74.8613 14.6115Z" fill="#2C39F2"/>
<path d="M85.6087 13.2766C85.1146 13.2766 84.744 13.1552 84.3734 12.7912C84.0028 12.4271 83.8793 12.063 83.7557 11.5776H83.6322C83.5087 12.1844 83.1381 12.6698 82.6439 12.9125C82.1498 13.2766 81.5321 13.398 80.791 13.398C79.8027 13.398 79.0615 13.1552 78.5674 12.6698C78.0732 12.1844 77.8262 11.4563 77.8262 10.7281C77.8262 9.75728 78.1968 9.02915 78.938 8.54373C79.6792 8.05831 80.6674 7.81559 81.9027 7.81559H83.3851V7.20882C83.3851 6.72339 83.2616 6.35933 83.0145 6.11662C82.7675 5.8739 82.3969 5.75255 81.7792 5.75255C81.2851 5.75255 80.791 5.8739 80.5439 6.11662C80.2968 6.35933 79.9262 6.60204 79.8027 6.84475L78.1968 5.38848C78.5674 4.7817 79.0615 4.41764 79.6792 4.05357C80.2968 3.6895 81.038 3.56815 82.0263 3.56815C83.3851 3.56815 84.3734 3.81086 85.1146 4.41764C85.8558 5.02441 86.1029 5.8739 86.1029 6.9661V11.0922H86.9676V13.2766H85.6087ZM81.9027 11.5776C82.3969 11.5776 82.7675 11.4563 83.0145 11.3349C83.2616 11.2136 83.5087 10.8495 83.5087 10.3641V9.27186H82.1498C81.038 9.27186 80.5439 9.63593 80.5439 10.3641V10.6068C80.5439 10.9708 80.6674 11.2136 80.9145 11.3349C81.1615 11.4563 81.4086 11.5776 81.9027 11.5776Z" fill="white"/>
</svg>
