<svg width="134" height="26" viewBox="0 0 134 26" fill="none" xmlns="http://www.w3.org/2000/svg">
<path d="M0 24.9993V6.43185H9.01787C9.8826 6.43185 10.7473 6.55321 11.365 6.91728C12.1062 7.15999 12.7238 7.64541 13.218 8.13083C13.7121 8.61626 14.0827 9.22304 14.3298 10.0725C14.5768 10.8007 14.7004 11.6501 14.7004 12.4996C14.7004 13.3491 14.5768 14.1986 14.3298 14.9268C14.0827 15.6549 13.7121 16.2617 13.218 16.7471C12.7238 17.2325 12.1062 17.7179 11.365 17.9606C10.6238 18.2034 9.8826 18.4461 9.01787 18.4461H4.20011V24.9993H0ZM4.07657 14.8054H8.40021C9.01787 14.8054 9.512 14.684 9.8826 14.32C10.2532 13.9559 10.3767 13.5918 10.3767 12.9851V11.7715C10.3767 11.1647 10.2532 10.6793 9.8826 10.4366C9.512 10.0725 9.01787 9.95117 8.40021 9.95117H4.07657V14.8054Z" fill="black"/>
<path d="M17.7891 24.9993V6.43185H30.76V10.0725H21.9892V13.8346H29.5246V17.4752H21.9892V21.48H30.76V25.1206H17.7891V24.9993Z" fill="black"/>
<path d="M34.3428 6.43185H38.4193V21.48H44.1018V6.43185H48.1784V21.48H53.8609V6.43185H57.9375V24.9993H34.0957V6.43185H34.3428Z" fill="black"/>
<path d="M62.2617 24.9993V6.43185H75.1091V10.0725H66.3383V13.8345H73.8738V17.4752H66.3383V21.48H75.1091V25.1206H62.2617V24.9993Z" fill="black"/>
<path d="M90.1775 17.4752H82.8891V24.9993H78.8125V6.43185H82.8891V13.8345H90.1775V6.43185H94.254V24.9993H90.1775V17.4752Z" fill="black"/>
<path d="M98.4551 6.43185H102.532V15.5335L102.038 19.4169H102.161L104.014 15.8976L110.314 6.43185H114.02V24.9993H109.944V15.8976L110.438 12.0142H110.314L108.461 15.5335L102.161 24.9993H98.4551V6.43185Z" fill="black"/>
<path d="M118.098 6.43185H122.174V15.5335L121.68 19.4169H121.804L123.657 15.8976L129.957 6.43185H133.663V24.9993H129.586V15.8976L130.08 12.0142H129.957L128.104 15.5335L121.804 24.9993H118.098V6.43185ZM125.88 5.33965C124.645 5.33965 123.657 5.09694 122.915 4.61152C122.174 4.12609 121.557 3.39796 121.186 2.42711L120.568 1.0922L123.657 0L124.521 2.66983C124.645 2.66983 124.768 2.79118 125.015 2.79118C125.263 2.79118 125.51 2.79118 125.757 2.79118C126.004 2.79118 126.251 2.79118 126.498 2.79118C126.745 2.79118 126.868 2.66983 126.992 2.66983L127.857 0L130.945 1.0922L130.327 2.42711C129.957 3.39796 129.339 4.12609 128.598 4.61152C128.104 5.09694 127.116 5.33965 125.88 5.33965Z" fill="black"/>
</svg>
